<?xml version="1.0" standalone="no"?><!-- Generator: Gravit.io --><svg xmlns="http://www.w3.org/2000/svg" xmlns:xlink="http://www.w3.org/1999/xlink" style="isolation:isolate" viewBox="30 30 40 40" width="40" height="40"><g><rect x="30" y="30" width="40" height="40" transform="matrix(1,0,0,1,0,0)" fill="rgb(207,196,178)"/><path d=" M 41.68 44.357 L 41.68 44.357 Q 43.492 44.357 44.884 45.082 L 44.884 45.082 L 44.884 45.082 Q 46.276 45.807 47.051 47.117 L 47.051 47.117 L 47.051 47.117 Q 47.825 48.427 47.825 50.124 L 47.825 50.124 L 47.825 50.124 Q 47.825 51.821 47.043 53.139 L 47.043 53.139 L 47.043 53.139 Q 46.26 54.457 44.835 55.182 L 44.835 55.182 L 44.835 55.182 Q 43.41 55.907 41.564 55.907 L 41.564 55.907 L 36.704 55.907 L 36.704 44.357 L 41.68 44.357 L 41.68 44.357 Z  M 41.762 53.468 L 41.762 53.468 Q 42.635 53.468 43.311 53.056 L 43.311 53.056 L 43.311 53.056 Q 43.986 52.644 44.365 51.887 L 44.365 51.887 L 44.365 51.887 Q 44.744 51.129 44.744 50.157 L 44.744 50.157 L 44.744 50.157 Q 44.744 49.168 44.34 48.41 L 44.34 48.41 L 44.34 48.41 Q 43.937 47.652 43.228 47.232 L 43.228 47.232 L 43.228 47.232 Q 42.52 46.812 41.614 46.812 L 41.614 46.812 L 39.719 46.812 L 39.719 53.468 L 41.762 53.468 L 41.762 53.468 Z  M 57.233 51.31 L 57.216 44.357 L 60.017 44.357 L 60.017 55.907 L 57.381 55.907 L 52.142 49.003 L 52.142 55.907 L 49.324 55.907 L 49.324 44.357 L 51.977 44.357 L 57.233 51.31 L 57.233 51.31 Z " fill-rule="evenodd" fill="rgb(33,36,32)"/></g></svg>